<?xml version="1.0" encoding="UTF-8" standalone="no"?>
<!-- Created with Inkscape (http://www.inkscape.org/) -->

<svg
   width="1920"
   height="900.5799"
   viewBox="0 0 507.99999 238.27843"
   version="1.1"
   id="svg5"
   inkscape:export-filename="..\..\Downloads\font.png"
   inkscape:export-xdpi="92.36364"
   inkscape:export-ydpi="92.36364"
   inkscape:version="1.2 (dc2aedaf03, 2022-05-15)"
   sodipodi:docname="font.svg"
   xmlns:inkscape="http://www.inkscape.org/namespaces/inkscape"
   xmlns:sodipodi="http://sodipodi.sourceforge.net/DTD/sodipodi-0.dtd"
   xmlns:xlink="http://www.w3.org/1999/xlink"
   xmlns="http://www.w3.org/2000/svg"
   xmlns:svg="http://www.w3.org/2000/svg">
  <sodipodi:namedview
     id="namedview7"
     pagecolor="#505050"
     bordercolor="#eeeeee"
     borderopacity="1"
     inkscape:showpageshadow="0"
     inkscape:pageopacity="0"
     inkscape:pagecheckerboard="0"
     inkscape:deskcolor="#505050"
     inkscape:document-units="mm"
     showgrid="false"
     showguides="true"
     inkscape:zoom="0.70710678"
     inkscape:cx="835.80022"
     inkscape:cy="910.04643"
     inkscape:window-width="2548"
     inkscape:window-height="2061"
     inkscape:window-x="0"
     inkscape:window-y="0"
     inkscape:window-maximized="0"
     inkscape:current-layer="layer1">
    <sodipodi:guide
       position="48.873417,-19.083042"
       orientation="0,1"
       id="guide1834"
       inkscape:locked="false"
       inkscape:label=""
       inkscape:color="rgb(0,134,229)" />
    <sodipodi:guide
       position="0,306.28624"
       orientation="-1,0"
       id="guide2562"
       inkscape:locked="false"
       inkscape:label=""
       inkscape:color="rgb(0,134,229)" />
    <sodipodi:guide
       position="32.100291,266.66696"
       orientation="0,1"
       id="guide3290"
       inkscape:locked="false"
       inkscape:label=""
       inkscape:color="rgb(0,134,229)" />
    <sodipodi:guide
       position="508,293.5618"
       orientation="-1,0"
       id="guide4018"
       inkscape:locked="false"
       inkscape:label=""
       inkscape:color="rgb(0,134,229)" />
  </sodipodi:namedview>
  <defs
     id="defs2">
    <linearGradient
       id="linearGradient8416"
       inkscape:swatch="solid">
      <stop
         style="stop-color:#000000;stop-opacity:1;"
         offset="0"
         id="stop8414" />
    </linearGradient>
    <linearGradient
       inkscape:collect="always"
       id="linearGradient408">
      <stop
         style="stop-color:#000000;stop-opacity:1;"
         offset="0.08685446"
         id="stop404" />
      <stop
         style="stop-color:#a32404;stop-opacity:0;"
         offset="1"
         id="stop406" />
    </linearGradient>
    <linearGradient
       inkscape:collect="always"
       xlink:href="#linearGradient408"
       id="linearGradient410"
       x1="90.517036"
       y1="24.870497"
       x2="90.517036"
       y2="286.01071"
       gradientUnits="userSpaceOnUse"
       gradientTransform="matrix(1,0,0,0.83387023,0,28.388537)" />
  </defs>
  <g
     inkscape:label="Capa 1"
     inkscape:groupmode="layer"
     id="layer1"
     transform="translate(0,-28.388527)">
    <g
       id="g1674">
      <rect
         style="fill:url(#linearGradient410);fill-opacity:1;stroke:none;stroke-width:0"
         id="rect244"
         width="508"
         height="238.27841"
         x="0"
         y="28.388535" />
      <path
         style="fill:#070b2d;fill-opacity:1;fill-rule:nonzero;stroke:none;stroke-width:0"
         d="m 0,266.66695 v -45.29722 l 19.53103,-18.93185 52.315258,15.23783 29.296542,20.31709 49.52511,-8.77327 34.52807,14.31432 29.47093,-5.28745 -11.33497,28.42055 z"
         id="path15946" />
      <path
         style="fill:#15194a;fill-opacity:0.948097;fill-rule:nonzero;stroke:none;stroke-width:0"
         d="M 0,235.23773 V 191.4731 l 17.354697,13.0588 28.487897,-10.58821 48.134728,12.70586 29.470248,14.11761 38.63875,-22.58818 35.03684,13.05879 37.00153,-2.47058 -21.93896,17.64702 -10.64204,21.72321 -27.66928,4.04145 -32.41726,-10.94115 -46.497491,6.70585 L 67.454105,232.4142 18.337039,220.76716 Z"
         id="path16674" />
      <path
         style="fill:#11163e;fill-opacity:0.83045;fill-rule:nonzero;stroke:none;stroke-width:0"
         d="M 0,201.42081 V 156.5054 l 19.422391,22.00554 30.044014,16.5795 43.927982,15.07229 H 123.2108 L 150.22006,207.14828 114.41003,226.4408 87.097286,214.38297 42.48648,203.53093 16.084168,212.5743 Z"
         id="path17942" />
      <path
         style="fill:#151b4e;fill-opacity:0.633218;fill-rule:nonzero;stroke:none;stroke-width:0"
         d="m 18.508276,180.45931 64.200584,-19.66505 52.34372,-33.54625 26.02726,-27.18403 41.35443,1.73515 18.79747,7.2298 17.35151,16.48393 31.52191,15.90555 -30.36514,26.02726 -13.59202,34.70302 -19.37585,14.45959 -16.33934,1.01217 -16.33934,1.01217 -15.47176,-5.35005 -15.47176,-5.35004 -12.86904,1.44595 -12.86903,1.44596 H 103.20533 88.998776 l -20.930253,-7.2298 -20.930256,-7.22979 -14.314996,-7.95277 z"
         id="path18270" />
      <path
         style="fill:#070b2d;fill-opacity:1;fill-rule:nonzero;stroke:none;stroke-width:0"
         d="m 168.59883,266.66695 18.79747,-35.59908 38.7517,-28.91918 13.59203,-34.70302 30.36513,-26.02726 32.10029,-12.43525 c 0,0 8.96495,-20.82181 10.70013,-21.68938 1.73514,-0.86758 14.17038,-4.91627 14.17038,-4.91627 l 38.7517,-0.57838 26.31646,10.7001 34.70302,8.38656 7.22979,29.20837 26.60565,12.43525 20.53262,-16.48393 16.48394,0.28919 10.30087,16.48393 v 103.84835 z"
         id="path15942" />
    </g>
  </g>
</svg>
