<?xml version="1.0" encoding="UTF-8" standalone="no"?>
<!-- Created with Inkscape (http://www.inkscape.org/) -->

<svg
   width="1920"
   height="1080"
   viewBox="0 0 507.99999 285.75"
   version="1.1"
   id="svg5"
   inkscape:export-filename="..\..\Downloads\font.png"
   inkscape:export-xdpi="92.36364"
   inkscape:export-ydpi="92.36364"
   inkscape:version="1.2 (dc2aedaf03, 2022-05-15)"
   sodipodi:docname="dibujo.svg"
   xmlns:inkscape="http://www.inkscape.org/namespaces/inkscape"
   xmlns:sodipodi="http://sodipodi.sourceforge.net/DTD/sodipodi-0.dtd"
   xmlns:xlink="http://www.w3.org/1999/xlink"
   xmlns="http://www.w3.org/2000/svg"
   xmlns:svg="http://www.w3.org/2000/svg">
  <sodipodi:namedview
     id="namedview7"
     pagecolor="#505050"
     bordercolor="#eeeeee"
     borderopacity="1"
     inkscape:showpageshadow="0"
     inkscape:pageopacity="0"
     inkscape:pagecheckerboard="0"
     inkscape:deskcolor="#505050"
     inkscape:document-units="mm"
     showgrid="false"
     showguides="true"
     inkscape:zoom="0.70710678"
     inkscape:cx="627.91082"
     inkscape:cy="908.63222"
     inkscape:window-width="2548"
     inkscape:window-height="2061"
     inkscape:window-x="0"
     inkscape:window-y="0"
     inkscape:window-maximized="0"
     inkscape:current-layer="layer1">
    <sodipodi:guide
       position="48.873422,16.404163"
       orientation="0,1"
       id="guide1834"
       inkscape:locked="false"
       inkscape:label=""
       inkscape:color="rgb(0,134,229)" />
    <sodipodi:guide
       position="5.0000008e-06,341.77344"
       orientation="-1,0"
       id="guide2562"
       inkscape:locked="false"
       inkscape:label=""
       inkscape:color="rgb(0,134,229)" />
    <sodipodi:guide
       position="32.100296,302.15416"
       orientation="0,1"
       id="guide3290"
       inkscape:locked="false"
       inkscape:label=""
       inkscape:color="rgb(0,134,229)" />
    <sodipodi:guide
       position="508.00001,329.049"
       orientation="-1,0"
       id="guide4018"
       inkscape:locked="false"
       inkscape:label=""
       inkscape:color="rgb(0,134,229)" />
  </sodipodi:namedview>
  <defs
     id="defs2">
    <linearGradient
       id="linearGradient8416"
       inkscape:swatch="solid">
      <stop
         style="stop-color:#000000;stop-opacity:1;"
         offset="0"
         id="stop8414" />
    </linearGradient>
    <linearGradient
       inkscape:collect="always"
       id="linearGradient408">
      <stop
         style="stop-color:#000000;stop-opacity:1;"
         offset="0"
         id="stop404" />
      <stop
         style="stop-color:#a32404;stop-opacity:0;"
         offset="0.70108694"
         id="stop406" />
    </linearGradient>
    <linearGradient
       inkscape:collect="always"
       xlink:href="#linearGradient408"
       id="linearGradient410"
       x1="90.517036"
       y1="24.870497"
       x2="90.517036"
       y2="286.01071"
       gradientUnits="userSpaceOnUse"
       gradientTransform="translate(0,16.404167)" />
  </defs>
  <g
     inkscape:label="Capa 1"
     inkscape:groupmode="layer"
     id="layer1"
     transform="translate(5.0000009e-6,-16.404163)">
    <g
       id="g938"
       inkscape:export-filename="..\..\Downloads\font.webp"
       inkscape:export-xdpi="92.36364"
       inkscape:export-ydpi="92.36364">
      <rect
         style="fill:url(#linearGradient410);fill-opacity:1;stroke:none;stroke-width:0"
         id="rect244"
         width="508"
         height="285.75"
         x="-6.0632977e-14"
         y="16.404163" />
      <path
         style="fill:#07091a;fill-opacity:1;fill-rule:nonzero;stroke:none;stroke-width:0"
         d="m 168.59883,277.22698 18.79747,-35.59908 38.7517,-28.91918 13.59202,-34.70302 30.36514,-26.02726 32.10028,-12.43525 c 0,0 8.96496,-20.82181 10.70012,-21.68938 1.73514,-0.86758 14.17039,-4.91626 14.17039,-4.91626 l 38.7517,-0.57838 26.31646,10.70009 34.70302,8.38656 7.22979,29.20837 26.60565,12.43525 20.53262,-16.48393 16.48394,0.28919 10.30086,16.48393 v 103.84835 z"
         id="path15942" />
      <path
         style="fill:#07091a;fill-opacity:1;fill-rule:nonzero;stroke:none;stroke-width:0"
         d="M -5.0000008e-6,277.22697 V 248.85769 L 16.194737,237.00082 l 43.378772,9.54333 24.292112,12.72443 41.065229,-5.49463 28.62999,8.96494 24.43671,-3.31148 -9.39873,17.79956 z"
         id="path15946" />
      <path
         style="fill:#0b0e28;fill-opacity:0.948097;fill-rule:nonzero;stroke:none;stroke-width:0"
         d="M -5.0000008e-6,248.85769 V 212.9979 L 15.327161,223.698 l 25.159687,-8.67575 42.511199,10.4109 26.027263,11.56767 34.12463,-18.50827 30.94352,10.70009 32.67868,-2.02434 -19.37585,14.45959 -9.39874,17.79952 -24.43671,3.31148 -28.62999,-8.96494 -41.065231,5.49463 -24.29211,-12.72443 -43.378772,-9.54333 z"
         id="path16674" />
      <path
         style="fill:#11163e;fill-opacity:0.83045;fill-rule:nonzero;stroke:none;stroke-width:0"
         d="M -5.0000008e-6,212.9979 V 169.90832 L 18.508271,191.01933 l 28.629991,15.90554 41.860511,14.45959 h 28.413097 l 25.73807,-2.89191 -34.12463,18.50827 -26.027265,-11.56767 -42.511197,-10.4109 -25.159687,8.67575 z"
         id="path17942" />
      <path
         style="fill:#151b4e;fill-opacity:0.633218;fill-rule:nonzero;stroke:none;stroke-width:0"
         d="m 18.508271,191.01933 64.200584,-19.66505 52.343715,-33.54625 26.02726,-27.18403 41.35443,1.73515 18.79747,7.2298 17.35151,16.48393 31.52191,15.90555 -30.36514,26.02726 -13.59202,34.70302 -19.37585,14.45959 -16.33934,1.01217 -16.33934,1.01217 -15.47176,-5.35005 -15.47176,-5.35004 -12.86904,1.44595 -12.86903,1.44596 H 103.20532 88.998771 l -20.930253,-7.2298 -20.930256,-7.22979 -14.314996,-7.95277 z"
         id="path18270" />
      <path
         style="opacity:0.238245;fill:#151b4e;fill-opacity:0.633218;fill-rule:nonzero;stroke:none;stroke-width:0"
         d="M -5.0000008e-6,269.3903 H 507.99998"
         id="path18326" />
    </g>
  </g>
</svg>
