<svg fill="#000000" xmlns="http://www.w3.org/2000/svg"  viewBox="0 0 48 48" width="50px" height="50px"><path d="M42.5,24c0,10.217-8.283,18.5-18.5,18.5S5.5,34.217,5.5,24S13.783,5.5,24,5.5S42.5,13.783,42.5,24z M24.41,22.5H19.5 c-0.828,0-1.5,0.672-1.5,1.5s0.672,1.5,1.5,1.5h4.293c-0.662,2.327-2.833,4-5.296,4c-0.025,0-0.051,0-0.076-0.001 c-2.897-0.04-5.38-2.522-5.42-5.42c-0.021-1.485,0.541-2.885,1.583-3.94c1.042-1.057,2.433-1.639,3.916-1.639 c1.115,0,2.188,0.331,3.104,0.958c0.683,0.469,1.617,0.294,2.085-0.39c0.469-0.684,0.294-1.617-0.39-2.085 C21.882,16.013,20.223,15.5,18.5,15.5c-2.293,0-4.442,0.899-6.053,2.532c-1.609,1.632-2.479,3.795-2.446,6.088 c0.063,4.557,3.822,8.315,8.379,8.379c0.039,0,0.077,0.001,0.116,0.001c4.124,0,7.72-3.038,8.392-7.111 c0.117-0.715-0.087-1.443-0.56-2C25.849,22.824,25.149,22.5,24.41,22.5z M36.5,22.5H35V21c0-0.828-0.672-1.5-1.5-1.5 S32,20.172,32,21v1.5h-1.5c-0.828,0-1.5,0.672-1.5,1.5s0.672,1.5,1.5,1.5H32V27c0,0.828,0.672,1.5,1.5,1.5S35,27.828,35,27v-1.5 h1.5c0.828,0,1.5-0.672,1.5-1.5S37.328,22.5,36.5,22.5z"/><circle cx="24" cy="24" r="18.5" fill="none" stroke="#000000" stroke-miterlimit="10" stroke-width="3"/></svg>